<svg xmlns="http://www.w3.org/2000/svg" viewBox="18 18 72 72">
  <!-- Same artwork as the Android adaptive icon (108-unit canvas, visible 72-unit window). -->
  <defs>
    <linearGradient id="g" gradientUnits="userSpaceOnUse" x1="18" y1="18" x2="90" y2="90">
      <stop offset="0" stop-color="#34D399"/>
      <stop offset="1" stop-color="#047857"/>
    </linearGradient>
  </defs>
  <rect x="0" y="0" width="108" height="108" fill="url(#g)"/>
  <g transform="translate(0 -2)">
    <path d="M45,46 V41 a9,9 0 0 1 18,0 V46" fill="none" stroke="#fff" stroke-width="4.5" stroke-linecap="round"/>
    <path fill="#fff" d="M38,44 h32 a4,4 0 0 1 4,4 l2,26 a6,6 0 0 1 -6,6.5 h-32 a6,6 0 0 1 -6,-6.5 l2,-26 a4,4 0 0 1 4,-4 z"/>
    <g transform="rotate(-45 54 62)">
      <path fill="#10B981" d="M53.3,56 H48 A6,6 0 0 0 48,68 H53.3 Z"/>
      <path fill="#15BEF0" d="M54.7,56 H60 A6,6 0 0 1 60,68 H54.7 Z"/>
    </g>
  </g>
</svg>
